<?xml version="1.0" encoding="UTF-8"?>
<svg id="Layer_1" xmlns="http://www.w3.org/2000/svg" version="1.1" viewBox="0 0 24 24">
  <!-- Generator: Adobe Illustrator 30.3.0, SVG Export Plug-In . SVG Version: 2.1.3 Build 182)  -->
  <defs>
    <style>
      .st0 {
        fill: none;
        stroke: #000;
        stroke-linecap: round;
        stroke-linejoin: round;
        stroke-width: 2px;
      }
    </style>
  </defs>
  <path d="M10.44,13.55c-1.15,1.15-1.41.79-1.3-.79.05-.78,0-1.87.02-2.96,0-1.09-.01-1.66-.01-2.43,0-.55.45-1,1-1s1,.45,1,1c0,.78.02,1.35.01,2.44,0,1.09-.02,1.88-.02,2.66,0,.55.05.33-.7,1.08Z"/>
  <path d="M18,21c-.55,0-1-.45-1-1v-7.45c0-.55.03-.79,1-1.76,1.19-1.19,1-.49,1,.83v8.38c0,.55-.45,1-1,1Z"/>
  <path d="M6.31,12.06c-.69-.69-1.29-.89-1.31-1.38v-5.31c0-.55.45-1,1-1s1,.45,1,1v5.31c.03,1.75.09,2.12-.69,1.38Z"/>
  <path d="M6,21c-.55,0-1-.45-1-1v-2.31c0-1.32.04-1.93,1-1.06.72.66,1,.83,1,1.39v1.98c0,.55-.45,1-1,1Z"/>
  <path d="M14.04,21c-.55,0-1-.45-1-1v-3.64c0-.55-.02-.48,1-1.5,1.11-1.11,1,.42,1,.97v4.17c0,.55-.45,1-1,1Z"/>
  <polyline class="st0" points="18.69 7.76 9.19 17.26 4.87 12.94"/>
  <path d="M10.16,20.95c-.55,0-1-.29-1-.85v-.35c0-.55.11-.33,1.02-1.15,0,0,0,0,0,0,1.08-1.08.98.25.98.8v.55c0,.55-.45,1-1,1Z"/>
  <path d="M18,6.28c-1.08,1.08-1.08-.22-1.08-.77v-1.54c0-.55.44-1,.99-1.01h0c.55,0,1,.44,1,.99v1.28c0,.19-.32.45-.92,1.05Z"/>
  <path d="M14.28,9.72c-1.56,1.56-1.26.28-1.26-1.25,0-.78,0-1.35.02-1.92,0-.56.02-1.12.02-1.89,0-.55.45-1,1-1s1,.45,1,1c0,.78,0,1.35-.02,1.92,0,.56-.02,1.12-.02,1.89,0,.55-.01.51-.74,1.25Z"/>
</svg>