<svg xmlns="http://www.w3.org/2000/svg" viewBox="0 0 24 24"><path fill="none" stroke="currentColor" stroke-linecap="round" stroke-linejoin="round" stroke-width="2px"   d="M13,4v11.2c0,1.68,0,2.52.26,3.16.23.56.6,1.02,1.05,1.31.51.33,1.19.33,2.53.33h.16M17,20c0,1.1.9,2,2,2s2-.9,2-2-.9-2-2-2-2,.9-2,2ZM7,4h10M7,4c0,1.1-.9,2-2,2s-2-.9-2-2,.9-2,2-2,2,.9,2,2ZM17,4c0,1.1.9,2,2,2s2-.9,2-2-.9-2-2-2-2,.9-2,2ZM13,12h4M17,12c0,1.1.9,2,2,2s2-.9,2-2-.9-2-2-2-2,.9-2,2Z"/><polyline fill="none" stroke="currentColor" stroke-linecap="round" stroke-linejoin="round" stroke-width="2px" points="5.57 14.48 8.71 17.62 5.57 20.76"/></svg>