<svg xmlns="http://www.w3.org/2000/svg" viewBox="0 0 24 24"><path id="path3"     d="M 128,7.375 C 61.3334,7.375 7.375,61.3334 7.375,128 7.375,194.6666 61.3334,248.625 128,248.625 194.6666,248.625 248.625,194.6666 248.625,128 248.625,61.3334 194.6666,7.375 128,7.375 Z M 86.325,71.85 c 7.017537,0 13.61185,0.882019 18.875,3.075 5.70175,2.19298 10.96185,5.264039 16.225,9.65 L 109.15,101.25 c -3.50877,-2.631572 -7.02983,-4.384212 -10.1,-5.7 -3.070173,-1.315789 -7.016232,-1.75 -10.525,-1.75 -14.912266,0 -22.375,11.4044 -22.375,34.65 0,11.84209 1.752636,20.17543 5.7,25 3.947364,5.26314 9.218866,7.45 16.675,7.45 3.508768,0 7.029828,-0.43421 10.1,-1.75 3.07017,-1.31579 6.56403,-3.06843 10.95,-5.7 l 12.275,17.525 c -10.08771,8.33332 -21.49212,12.3 -34.65,12.3 -10.526304,0 -19.280271,-2.21404 -27.175,-6.6 -7.456134,-4.38596 -13.602635,-10.96667 -17.55,-19.3 -3.947364,-8.33332 -6.15,-17.9715 -6.15,-29.375 0,-10.9649 2.202636,-21.04167 6.15,-29.375 3.947365,-8.771921 10.093866,-15.350444 17.55,-20.175 7.456133,-3.947365 16.212291,-6.6 26.3,-6.6 z m 36.85,3.95 h 30.275 l 21.05,87.3 22.35,-87.3 h 29.4 l -34.225,105.275 c -4.38597,13.59649 -10.96449,23.66887 -20.175,31.125 -9.21052,7.45613 -21.47414,11.40921 -36.825,12.725 L 131.95,204.75 c 10.08771,-1.31579 17.55044,-3.51623 22.375,-7.025 1.75438,-1.31579 5.25,-5.25 5.25,-5.25 z" transform="scale(0.096)" fill="currentColor" /></svg>
