<svg xmlns="http://www.w3.org/2000/svg" version="1.1" viewBox="0 0 24 24">
  <defs>
    <style>
      .managed-maven-st0 {
        stroke: currentColor;
      }

      .managed-maven-st0, .managed-maven-st1, .managed-maven-st2 {
        fill: none;
        stroke-linecap: round;
        stroke-linejoin: round;
      }

      .managed-maven-st1 {
        stroke-width: 2px;
      }

      .managed-maven-st1, .managed-maven-st2 {
        stroke: #fff;
      }

      .managed-maven-st2 {
        stroke-width: 2.5px;
      }
    </style>
  </defs>
  <circle class="managed-maven-st1" cx="17.35" cy="18.75" r="1.03"/>
  <path class="managed-maven-st2" d="M19.89,19.78c-.09.21-.05.46.11.62l.02.02c.27.27.27.7,0,.97h0c-.27.27-.7.27-.97,0h0s-.02-.02-.02-.02c-.17-.16-.41-.21-.62-.11-.21.09-.34.29-.34.52v.06c0,.38-.31.69-.69.69s-.69-.31-.69-.69v-.03c0-.23-.15-.44-.37-.52-.21-.09-.46-.05-.62.11l-.02.02c-.27.27-.7.27-.97,0,0,0,0,0,0,0-.27-.27-.27-.7,0-.97,0,0,0,0,0,0l.02-.02c.16-.17.21-.41.11-.62-.09-.21-.29-.34-.52-.34h-.06c-.38,0-.69-.31-.69-.69s.31-.69.69-.69h.03c.23,0,.44-.15.52-.37.09-.21.05-.46-.11-.62l-.02-.02c-.27-.27-.27-.7,0-.97,0,0,0,0,0,0,.27-.27.7-.27.97,0,0,0,0,0,0,0l.02.02c.17.16.41.21.62.11h.03c.21-.09.34-.29.34-.52v-.06c0-.38.31-.69.69-.69s.69.31.69.69v.03c0,.23.14.43.34.52.21.09.46.05.62-.11l.02-.02c.27-.27.7-.27.97,0,0,0,0,0,0,0,.27.27.27.7,0,.97,0,0,0,0,0,0l-.02.02c-.16.17-.21.41-.11.62v.03c.09.21.29.34.52.34h.06c.38,0,.69.31.69.69s-.31.69-.69.69h-.03c-.23,0-.43.14-.52.34Z"/>
  <g>
    <circle class="managed-maven-st0" cx="17.35" cy="18.75" r="1.03"/>
    <path class="managed-maven-st0" d="M19.89,19.78c-.09.21-.05.46.11.62l.02.02c.27.27.27.7,0,.97h0c-.27.27-.7.27-.97,0h0s-.02-.02-.02-.02c-.17-.16-.41-.21-.62-.11-.21.09-.34.29-.34.52v.06c0,.38-.31.69-.69.69s-.69-.31-.69-.69v-.03c0-.23-.15-.44-.37-.52-.21-.09-.46-.05-.62.11l-.02.02c-.27.27-.7.27-.97,0,0,0,0,0,0,0-.27-.27-.27-.7,0-.97,0,0,0,0,0,0l.02-.02c.16-.17.21-.41.11-.62-.09-.21-.29-.34-.52-.34h-.06c-.38,0-.69-.31-.69-.69s.31-.69.69-.69h.03c.23,0,.44-.15.52-.37.09-.21.05-.46-.11-.62l-.02-.02c-.27-.27-.27-.7,0-.97,0,0,0,0,0,0,.27-.27.7-.27.97,0,0,0,0,0,0,0l.02.02c.17.16.41.21.62.11h.03c.21-.09.34-.29.34-.52v-.06c0-.38.31-.69.69-.69s.69.31.69.69v.03c0,.23.14.43.34.52.21.09.46.05.62-.11l.02-.02c.27-.27.7-.27.97,0,0,0,0,0,0,0,.27.27.27.7,0,.97,0,0,0,0,0,0l-.02.02c-.16.17-.21.41-.11.62v.03c.09.21.29.34.52.34h.06c.38,0,.69.31.69.69s-.31.69-.69.69h-.03c-.23,0-.43.14-.52.34Z"/>
  </g>
  <path d="M4.7.56c.32.06.58.15.84.34,1.02.75,1.39,2.4,1.53,3.59.06.49.13,1.12.04,1.6-.05.26-.17.49-.26.73.22-.22.43-.51.54-.81.04.02.07.11.08.15.24.62.42,1.48.26,2.13-.06.24-.18.45-.27.68l.29-.35.27-.53c.07.48.08.96-.06,1.43-.06.19-.15.36-.23.54.2-.15.31-.37.44-.58.01-.02,0-.04.05-.03.13.48.29.96.4,1.45.31,1.45.33,2.72-.36,4.06-.04.08-.22.34-.23.4s.07.12.12.14c.06,0,.41-.35.45-.43.1-.19.16-.53.24-.75,1.35-3.82,4.21-7.52,7.03-10.39.79-.8,1.85-1.84,2.8-2.44.54-.34.96-.45,1.43.09,1.35,1.53-.34,4.1-1.37,5.37-.5.63-1.03,1.24-1.86,1.42l.19.02c.32-.04.64-.09.93-.22.02.03-.18.43-.21.49-.46.89-1.09,1.72-2.14,1.93l.19.02c.34,0,.63-.17.93-.25.03,0,.04-.04.04.02-.46.61-1.06,1.17-1.84,1.31l.21.02.73-.12c-.79,1.51-1.72,3.14-3.25,4-.67.38-1.47.67-2.25.67l.38.12c.57.13,1.18.08,1.72-.15l.65-.37c-.51.82-1.3,1.35-2.24,1.57l.35.07c.31.02.6-.07.84-.27.01.02-.14.21-.16.23-.76.89-2.01.94-3.09.75.2.29.32.62.29.98l-.25-.5c-.12-.24.09-.22-.16-.28l-.48.83,1.2,3.48c.03.16-.34.52-.41.66l-1.14-3.65c-.64,1.23-1.18,2.28-1.78,3.53-.08.12-.46.15-.6.21l-.12-.06c.69-1.46,1.54-2.91,2.27-4.35l-.2-.7c-.43.21-.83.63-1.1,1.01.12-.4.26-.82.56-1.12-.2.05-.39.07-.59.09l-.35-.05c.14,0,.9-.32.87-.46-.49-.55-1.19-.85-1.88-1.09l.39-.05c.13.04.25.01.38.03s.22.06.34.09c.03,0,.04,0,.03-.03-1.52-2.46-2.17-5.38-2.48-8.24-.23-2.1-.41-4.91-.02-6.98.07-.37.15-.83.55-.97l.18-.06h.34v.03ZM7.44,17.19c-1.32-4.42-2.46-8.95-2.78-13.58-.03-.43,0-.87-.02-1.3,0-.03.02-.08-.02-.08.02.16-.02.33-.02.48-.05,1.47.1,2.96.3,4.41.46,3.36,1.33,6.67,2.26,9.92.01.06.27.16.29.15h-.01ZM18.72,3.04l-.29.23c-1.98,1.9-3.64,4.14-5.15,6.43-1.8,2.73-3.41,5.6-4.94,8.49v.03l.26.16c1.94-3.71,3.94-7.37,6.37-10.78,1.14-1.6,2.37-3.16,3.76-4.56h0ZM7.21,17.24l.15.52s.24.02.23-.07c-.02-.2-.25-.31-.38-.44h0ZM7.84,18.09l.16.55.19-.37-.2-.03"/>
</svg>