<?xml version="1.0" encoding="UTF-8"?>
<svg id="Layer_1" xmlns="http://www.w3.org/2000/svg" version="1.1" viewBox="0 0 24 24">
  <!-- Generator: Adobe Illustrator 29.8.2, SVG Export Plug-In . SVG Version: 2.1.1 Build 3)  -->
  <defs>
    <style>
      .st0, .st1 {
        stroke: #000;
      }

      .st0, .st1, .st2, .st3 {
        fill: none;
        stroke-linecap: round;
        stroke-linejoin: round;
      }

      .st0, .st2 {
        stroke-width: 2px;
      }

      .st2, .st3 {
        stroke: #fff;
      }

      .st3 {
        stroke-width: 2.5px;
      }
    </style>
  </defs>
  <path class="st0" d="M13,2h-7c-1.1,0-2,.9-2,2v16c0,1.1.9,2,2,2h12c1.1,0,2-.9,2-2v-11l-7-7Z"/>
  <polyline class="st0" points="13 2 13 9 20 9"/>
  <circle class="st2" cx="17.35" cy="18.75" r="1.03"/>
  <path class="st3" d="M19.89,19.78c-.09.21-.05.46.11.62l.02.02c.27.27.27.7,0,.97h0c-.27.27-.7.27-.97,0h0s-.02-.02-.02-.02c-.17-.16-.41-.21-.62-.11-.21.09-.34.29-.34.52v.06c0,.38-.31.69-.69.69s-.69-.31-.69-.69v-.03c0-.23-.15-.44-.37-.52-.21-.09-.46-.05-.62.11l-.02.02c-.27.27-.7.27-.97,0,0,0,0,0,0,0-.27-.27-.27-.7,0-.97,0,0,0,0,0,0l.02-.02c.16-.17.21-.41.11-.62-.09-.21-.29-.34-.52-.34h-.06c-.38,0-.69-.31-.69-.69s.31-.69.69-.69h.03c.23,0,.44-.15.52-.37.09-.21.05-.46-.11-.62l-.02-.02c-.27-.27-.27-.7,0-.97,0,0,0,0,0,0,.27-.27.7-.27.97,0,0,0,0,0,0,0l.02.02c.17.16.41.21.62.11h.03c.21-.09.34-.29.34-.52v-.06c0-.38.31-.69.69-.69s.69.31.69.69v.03c0,.23.14.43.34.52.21.09.46.05.62-.11l.02-.02c.27-.27.7-.27.97,0,0,0,0,0,0,0,.27.27.27.7,0,.97,0,0,0,0,0,0l-.02.02c-.16.17-.21.41-.11.62v.03c.09.21.29.34.52.34h.06c.38,0,.69.31.69.69s-.31.69-.69.69h-.03c-.23,0-.43.14-.52.34Z"/>
  <g>
    <circle class="st1" cx="17.35" cy="18.75" r="1.03"/>
    <path class="st1" d="M19.89,19.78c-.09.21-.05.46.11.62l.02.02c.27.27.27.7,0,.97h0c-.27.27-.7.27-.97,0h0s-.02-.02-.02-.02c-.17-.16-.41-.21-.62-.11-.21.09-.34.29-.34.52v.06c0,.38-.31.69-.69.69s-.69-.31-.69-.69v-.03c0-.23-.15-.44-.37-.52-.21-.09-.46-.05-.62.11l-.02.02c-.27.27-.7.27-.97,0,0,0,0,0,0,0-.27-.27-.27-.7,0-.97,0,0,0,0,0,0l.02-.02c.16-.17.21-.41.11-.62-.09-.21-.29-.34-.52-.34h-.06c-.38,0-.69-.31-.69-.69s.31-.69.69-.69h.03c.23,0,.44-.15.52-.37.09-.21.05-.46-.11-.62l-.02-.02c-.27-.27-.27-.7,0-.97,0,0,0,0,0,0,.27-.27.7-.27.97,0,0,0,0,0,0,0l.02.02c.17.16.41.21.62.11h.03c.21-.09.34-.29.34-.52v-.06c0-.38.31-.69.69-.69s.69.31.69.69v.03c0,.23.14.43.34.52.21.09.46.05.62-.11l.02-.02c.27-.27.7-.27.97,0,0,0,0,0,0,0,.27.27.27.7,0,.97,0,0,0,0,0,0l-.02.02c-.16.17-.21.41-.11.62v.03c.09.21.29.34.52.34h.06c.38,0,.69.31.69.69s-.31.69-.69.69h-.03c-.23,0-.43.14-.52.34Z"/>
  </g>
</svg>