<svg width="25" height="24" viewBox="0 0 24 24" fill="none" xmlns="http://www.w3.org/2000/svg"><path d="M12.3883 12.8838L7.66618 15.5072M7.66618 15.5072L2.94402 12.8838M7.66618 15.5072L7.6662 20.7847M22.3885 13.376L17.6663 15.9994M17.6663 15.9994L12.9441 13.376M17.6663 15.9994L17.6663 21.2769M17.3883 4.85196L12.6662 7.47528M12.6662 7.47528L7.94402 4.85196M12.6662 7.47528L12.6662 12.7528M7.66626 9.72994V5.22066C7.66626 5.03032 7.66626 4.93514 7.69431 4.85026C7.71912 4.77516 7.75968 4.70623 7.81328 4.64808C7.87386 4.58234 7.95706 4.53612 8.12346 4.44367L12.2345 2.15984C12.3921 2.07231 12.4709 2.02855 12.5543 2.01139C12.6281 1.9962 12.7043 1.9962 12.7781 2.01139C12.8615 2.02855 12.9403 2.07231 13.0979 2.15984L17.2089 4.44367C17.3753 4.53611 17.4585 4.58233 17.5191 4.64807C17.5727 4.70623 17.6133 4.77516 17.6381 4.85026C17.6661 4.93514 17.6661 5.03031 17.6661 5.22066V9.72994C17.6661 9.92029 17.6661 10.0155 17.6381 10.1003M12.6661 17.7618V13.2525C12.6661 13.0622 12.6661 12.967 12.6381 12.8821C12.6133 12.807 12.5727 12.7381 12.5191 12.68C12.4585 12.6142 12.3753 12.568 12.2089 12.4756L8.09788 10.1917C7.94032 10.1042 7.86155 10.0604 7.77812 10.0433C7.70428 10.0281 7.62812 10.0281 7.55429 10.0433C7.47086 10.0604 7.39208 10.1042 7.23452 10.1917L3.12346 12.4756C2.95706 12.568 2.87386 12.6142 2.81328 12.68C2.75968 12.7381 2.71912 12.807 2.69431 12.8821C2.66626 12.967 2.66626 13.0622 2.66626 13.2525V17.7618C2.66626 17.9522 2.66626 18.0473 2.69431 18.1322C2.71912 18.2073 2.75968 18.2763 2.81328 18.3344C2.87386 18.4002 2.95706 18.4464 3.12346 18.5388L7.23452 20.8226C7.39208 20.9102 7.47086 20.9539 7.55429 20.9711C7.62812 20.9863 7.70428 20.9863 7.77812 20.9711C7.86155 20.9539 7.94032 20.9102 8.09788 20.8226L12.2089 18.5388C12.3753 18.4464 12.4585 18.4002 12.5191 18.3344C12.5727 18.2763 12.6133 18.2073 12.6381 18.1322C12.6661 18.0473 12.6661 17.9522 12.6661 17.7618ZM22.6663 18.254V13.7447C22.6663 13.5544 22.6663 13.4592 22.6382 13.3743C22.6134 13.2992 22.5728 13.2303 22.5192 13.1721C22.4587 13.1064 22.3755 13.0602 22.2091 12.9677L18.098 10.6839C17.9404 10.5964 17.8617 10.5526 17.7782 10.5355C17.7044 10.5203 17.6282 10.5203 17.5544 10.5355C17.471 10.5526 17.3922 10.5964 17.2346 10.6839L13.1236 12.9677C12.9572 13.0602 12.874 13.1064 12.8134 13.1721C12.7598 13.2303 12.7192 13.2992 12.6944 13.3743C12.6664 13.4592 12.6664 13.5544 12.6664 13.7447V18.254C12.6664 18.4444 12.6664 18.5395 12.6944 18.6244C12.7192 18.6995 12.7598 18.7684 12.8134 18.8266C12.874 18.8923 12.9572 18.9386 13.1236 19.031L17.2346 21.3148C17.3922 21.4024 17.471 21.4461 17.5544 21.4633C17.6282 21.4785 17.7044 21.4785 17.7782 21.4633C17.8617 21.4461 17.9404 21.4024 18.098 21.3148L22.2091 19.031C22.3755 18.9386 22.4587 18.8923 22.5192 18.8266C22.5728 18.7684 22.6134 18.6995 22.6382 18.6244C22.6663 18.5395 22.6663 18.4444 22.6663 18.254Z" stroke-width="2" stroke-linecap="round" stroke-linejoin="round"/></svg>
