<svg width="24" height="24" viewBox="0 0 24 24"  xmlns="http://www.w3.org/2000/svg" class="feather feather-plan-testscenario"><path d="M20.4998 7.27783L11.9998 12M11.9998 12L3.49985 7.27783M11.9998 12L11.9999 21.5001M20.9999 12.0001V7.94152C20.9999 7.59888 20.9999 7.42756 20.9494 7.27476C20.9047 7.13958 20.8317 7.0155 20.7352 6.91081C20.6262 6.79248 20.4764 6.70927 20.1769 6.54287L12.7769 2.43177C12.4933 2.27421 12.3515 2.19543 12.2013 2.16454C12.0684 2.13721 11.9313 2.13721 11.7984 2.16454C11.6483 2.19543 11.5065 2.27421 11.2228 2.43177L3.82285 6.54287C3.52333 6.70928 3.37356 6.79248 3.26451 6.91081C3.16804 7.0155 3.09503 7.13959 3.05036 7.27476C2.99988 7.42756 2.99988 7.59888 2.99988 7.94152V16.0586C2.99988 16.4013 2.99988 16.5726 3.05036 16.7254C3.09503 16.8606 3.16804 16.9846 3.26451 17.0893C3.37356 17.2077 3.52333 17.2909 3.82285 17.4573L11.2228 21.5684C11.5065 21.7259 11.6483 21.8047 11.7984 21.8356C11.9313 21.8629 12.0684 21.8629 12.2013 21.8356C12.3515 21.8047 12.4933 21.7259 12.7769 21.5684L16.5936 19.3127"  /><path d="M8.0116 9.41799L16.265 4.85938"  /><path d="M15.9879 9.41799L7.71875 4.71875"  /><path d="M16.5939 9.90649V19.219"  /><path d="M7.31262 9.68774V19.094"  /><path d="M20.9376 12.0315L12.7769 16.7051C12.4933 16.8627 12.3515 16.9414 12.2014 16.9723C12.0684 16.9997 11.9314 16.9997 11.7985 16.9723C11.6483 16.9414 11.5065 16.8627 11.2229 16.7051L3.43762 12.4065"  /></svg>
