<svg width="24" height="25" viewBox="0 0 24 24"  xmlns="http://www.w3.org/2000/svg" class="feather feather-plan-testcase"><path d="M14.5502 5.83696L9.08824 8.87136M9.08824 8.87136L3.62632 5.83696M9.08824 8.87136L9.08826 14.9759M14.8715 11.4793V6.26343C14.8715 6.04326 14.8715 5.93317 14.839 5.83499C14.8103 5.74812 14.7634 5.66839 14.7014 5.60112C14.6313 5.52508 14.5351 5.47162 14.3426 5.36469L9.58757 2.72297C9.40533 2.62173 9.31421 2.57111 9.21771 2.55126C9.13231 2.53369 9.04422 2.53369 8.95882 2.55126C8.86232 2.57111 8.7712 2.62173 8.58896 2.72297L3.83388 5.36469C3.64141 5.47162 3.54518 5.52508 3.4751 5.60112C3.41311 5.66839 3.36619 5.74813 3.33749 5.83499C3.30505 5.93317 3.30505 6.04326 3.30505 6.26343V11.4793C3.30505 11.6995 3.30505 11.8096 3.33749 11.9078C3.36619 11.9946 3.41311 12.0744 3.4751 12.1416C3.54518 12.2177 3.64141 12.2711 3.83388 12.3781L8.58896 15.0198C8.7712 15.121 8.86232 15.1717 8.95882 15.1915C9.04422 15.2091 9.13231 15.2091 9.21771 15.1915C9.31421 15.1717 9.40533 15.121 9.58757 15.0198L14.3426 12.3781C14.5351 12.2711 14.6313 12.2177 14.7014 12.1416C14.7634 12.0744 14.8103 11.9946 14.839 11.9078C14.8715 11.8096 14.8715 11.6995 14.8715 11.4793Z"  /><path d="M14.5502 12.1704L9.08824 15.2048M9.08824 15.2048L3.62632 12.1704M9.08824 15.2048L9.08826 21.3093M10.3734 20.9166L9.58757 21.3532C9.40533 21.4545 9.31421 21.5051 9.21771 21.5249C9.13231 21.5425 9.04422 21.5425 8.95882 21.5249C8.86232 21.5051 8.7712 21.4545 8.58896 21.3532L3.83388 18.7115C3.64142 18.6046 3.54517 18.5511 3.4751 18.4751C3.41311 18.4078 3.36619 18.3281 3.33749 18.2412C3.30505 18.143 3.30505 18.0329 3.30505 17.8128V12.5969C3.30505 12.3767 3.30505 12.2666 3.33749 12.1684C3.36619 12.0816 3.41311 12.0018 3.4751 11.9346M14.8715 15.5261L14.8715 12.5969C14.8715 12.3767 14.8715 12.2666 14.839 12.1684C14.8103 12.0816 14.7634 12.0018 14.7014 11.9346"  /><path d="M12.9839 18.6465L15.5542 21.2168L20.6948 16.0762"  /></svg>
