<svg xmlns="http://www.w3.org/2000/svg" viewBox="0 0 24 24"><path id="path3" d="M 10.447266,3.0097656 C 10.262324,2.9930214 10.106354,3.1121176 9.9511719,3.4277344 9.6702985,3.9976642 9.3286273,4.8438203 8.9804688,5.9707031 8.2902718,6.4104401 7.2814816,6.9320966 5.9785156,7.2832031 3.9990183,7.8169528 2.4001339,7.6742152 1.7324219,7.5585938 0.785821,7.3952776 0.28961941,7.1881939 0.3359375,7.9082031 0.37624857,8.543252 0.52848336,9.5277138 0.875,10.828125 c 0.749676,2.816142 3.2278012,8.241596 7.9101562,6.980469 0.2293309,-0.06179 0.4457324,-0.133319 0.6503907,-0.216797 0.7758011,1.148099 1.9227301,2.04977 3.5800781,2.494141 6.064459,1.624957 9.29215,-5.434897 10.273437,-9.097657 C 23.741884,9.2973443 23.941446,8.0170252 23.996094,7.1914062 24.058389,6.256145 23.415952,6.5269356 22.1875,6.7421875 21.322529,6.8938233 19.24617,7.0838861 16.681641,6.3964844 14.116416,5.7094999 12.414565,4.5081176 11.740234,3.9433594 11.142791,3.4429473 10.755502,3.0376727 10.447266,3.0097656 Z m 1.554687,5.6484375 c 0.181299,0.00345 0.373513,0.032242 0.576172,0.089844 1.622315,0.4608171 1.748047,2.2539059 1.748047,2.2539059 L 10,9.7734375 c 0,0 0.732859,-1.1393745 2.001953,-1.1152344 z M 5.9980469,9.9902344 c 0,0 -0.096297,1.2805176 -1.34375,1.6093746 C 3.4064962,11.928119 2.671875,10.867188 2.671875,10.867188 Z M 18.666016,10.658203 c 0.181236,0.0036 0.373547,0.03208 0.576172,0.08984 1.620925,0.461512 1.748046,2.253906 1.748046,2.253906 L 16.666016,11.77148 c 0,0 0.731346,-1.138505 2,-1.113281 z M 8.0507812,13.130859 c 0.043483,0.572895 0.1193383,1.142879 0.2421876,1.697266 l -2.9628907,0.839844 c 0,0 0.3200721,-1.860856 2.5800781,-2.501953 0.047751,-0.01353 0.093851,-0.02349 0.140625,-0.03516 z m 2.6152348,0.205079 7.660156,2.140624 c 0,-3.74e-4 -1.546323,1.793674 -4.369141,0.96875 -2.85174,-0.835352 -3.291015,-3.109374 -3.291015,-3.109374 z" stroke="transparent" fill="currentColor" /></svg>
