<?xml version="1.0" encoding="UTF-8"?>
<svg xmlns="http://www.w3.org/2000/svg" version="1.1" viewBox="0 0 24 24">
    <g>
      <path fill="currentColor" stroke-width="0" d="M18.15,22.05c-.12.25-.35.43-.63.43H6.38c-.46,0-.85-.55-.7-1.1.06-.22.25-.42.48-.55l.02-4.22c0-.64.24-1.23.58-1.75.45-.69,1.13-1.19,1.82-1.63.31-.2.6-.39.88-.65s.37-.7.13-1.02c-.12-.16-.27-.31-.43-.42l-1.15-.77c-.32-.22-.59-.47-.86-.75-.52-.54-.96-1.45-.96-2.2l-.02-4.26c-.5-.2-.67-.84-.37-1.28.13-.19.34-.36.59-.36h11.27c.26,0,.49.2.61.4.27.46.07,1.11-.45,1.27l-.02,4.29c0,.6-.25,1.14-.55,1.63-.17.27-.36.48-.59.7s-.46.44-.73.62l-.94.63c-.2.13-.38.28-.54.46-.27.32-.24.76.05,1.05.15.15.3.28.48.4l.72.47c.22.15.45.29.64.47l.48.45c.57.6.95,1.4.98,2.25l.03,4.27c.43.2.53.77.34,1.17ZM16.2,20.8l-.02-4.09c0-.42-.21-.78-.43-1.1-.19-.18-.35-.36-.57-.51l-1.06-.72c-.24-.17-.46-.33-.68-.53-1.13-1.04-1.08-2.75.09-3.76.6-.52,1.27-.84,1.86-1.34.45-.37.72-.86.79-1.45V3.21s-8.3,0-8.3,0v4.05c.07.35.14.67.33.97.2.26.41.51.68.69l1.19.8c.31.21.58.44.81.72.75.91.75,2.22,0,3.13-.26.32-.57.57-.91.79l-.92.6c-.19.13-.35.27-.52.44-.3.29-.53.63-.6,1.06-.02.12-.06.24-.06.37v3.96s8.3,0,8.3,0Z"/>
      <path fill="currentColor" stroke-width="0" d="M12.36,9.84c-.26.26-.56.03-.79-.24l-1.41-1.27c-.45-.3-.89-.62-.89-1.2v-1.75c0-.13.09-.21.21-.21h2.01s3.29-.04,3.29-.04c.11,0,.21.08.21.19v1.85c0,.74-.87,1.11-1.45,1.56-.43.34-.81.71-1.2,1.11Z"/>
    </g>
</svg>
